<svg xmlns="http://www.w3.org/2000/svg" version="1.1" xmlns:xlink="http://www.w3.org/1999/xlink" xmlns:svgjs="http://svgjs.dev/svgjs" width="1000" height="217" viewBox="0 0 1000 217"><g transform="matrix(1,0,0,1,-0.6060606060606233,0.45535161276163194)"><svg viewBox="0 0 396 86" data-background-color="#051726" preserveAspectRatio="xMidYMid meet" height="217" width="1000" xmlns="http://www.w3.org/2000/svg" xmlns:xlink="http://www.w3.org/1999/xlink"><g id="tight-bounds" transform="matrix(1,0,0,1,0.2400000000000091,-0.18046192948156659)"><svg viewBox="0 0 395.52 86.36091403360948" height="86.36091403360948" width="395.52"><g><svg viewBox="0 0 531.3554687393475 116.02028710833096" height="86.36091403360948" width="395.52"><g transform="matrix(1,0,0,1,135.83546873934762,16.034641705999434)"><svg viewBox="0 0 395.52 83.9510036963321" height="83.9510036963321" width="395.52"><g><svg viewBox="0 0 395.52 83.9510036963321" height="83.9510036963321" width="395.52" id="textblock"><g><svg viewBox="0 0 395.52 83.9510036963321" height="83.9510036963321" width="395.52"><g transform="matrix(1,0,0,1,0,0)"><svg width="395.52" viewBox="3.25 -35.84000015258789 171.7100067138672 36.45000076293945" height="83.9510036963321" data-palette-color="#35c5c9"><path d="M33.84-32.59L33.84-32.59 33.84-4.39Q33.84-2.42 34.64-1.51 35.45-0.61 37.7-0.2L37.7-0.2 37.5 0.39Q34.79 0.02 33.37 0 31.96-0.02 29.76 0.39L29.76 0.39 29.59 0.15Q30.1-0.56 30.1-2.44L30.1-2.44 30.1-18.51Q19.34-18.75 11.4-18.51L11.4-18.51 11.4-2.49Q11.4-0.76 12.16 0L12.16 0 12.01 0.24Q8.81-0.24 5.81 0.34L5.81 0.34 5.64 0.1Q6.88-1 7.26-1.88 7.64-2.76 7.64-4.44L7.64-4.44 7.64-28.1Q7.64-31.54 6.82-32.74 6.01-33.94 3.34-33.74L3.34-33.74 3.25-34.2Q7.28-35.4 10.89-35.4L10.89-35.4Q11.4-34.11 11.4-32.59L11.4-32.59 11.4-20.24Q20.7-19.87 30.1-20.24L30.1-20.24 30.1-28.1Q30.1-31.54 29.27-32.74 28.44-33.94 25.81-33.74L25.81-33.74 25.71-34.2Q29.74-35.4 33.35-35.4L33.35-35.4Q33.84-34.06 33.84-32.59ZM50.07-1.2L50.07-1.2 49.58-0.71Q47.39-0.46 45.63 0.61L45.63 0.61Q44.58-1.98 44.19-3.71L44.19-3.71Q46.68-4.98 49.12-5.25L49.12-5.25Q49.12-3.44 50.07-1.2ZM64.72-18.19L64.72-1.49 73.31-1.76Q75.09-1.81 76.31-2.17 77.53-2.54 78.41-3.21 79.29-3.88 79.95-4.87 80.61-5.86 81.27-7.15L81.27-7.15 81.98-6.86 79.56-0.34 79.17 0 61.42 0Q60.96-1 60.96-2.39L60.96-2.39 60.96-28.34Q60.96-29.96 60.81-30.99 60.66-32.03 60.27-32.65 59.88-33.28 59.19-33.52 58.49-33.76 57.39-33.76L57.39-33.76Q57.22-33.76 57.04-33.76 56.86-33.76 56.66-33.74L56.66-33.74 56.56-34.45Q63.52-35.55 71.89-35.55L71.89-35.55Q76.17-35.55 80.85-35.25L80.85-35.25 81.03-34.84 78.71-28.76 77.92-29Q78.12-29.93 78.22-30.71 78.32-31.49 78.32-32.24 78.32-32.98 78.12-33.64L78.12-33.64Q76.29-33.81 74.52-33.9 72.75-33.98 70.99-33.98L70.99-33.98Q67.79-33.98 64.72-33.69L64.72-33.69 64.72-19.9 78.07-20.63 78.32-20.36 77.17-18.36Q76.07-18.41 74.95-18.43 73.82-18.46 72.65-18.46L72.65-18.46Q70.75-18.46 68.77-18.38 66.79-18.31 64.72-18.19L64.72-18.19ZM93.84-1.2L93.84-1.2 93.35-0.71Q91.15-0.46 89.4 0.61L89.4 0.61Q88.35-1.98 87.96-3.71L87.96-3.71Q90.45-4.98 92.89-5.25L92.89-5.25Q92.89-3.44 93.84-1.2ZM98.57-0.49L113.49-33.84Q114.32-34.35 115.4-35.79L115.4-35.79 115.64-35.79 129.09-3.39Q129.99-1.22 132.78-0.34L132.78-0.34 132.78 0.1Q131.19-0.07 128.97 0.04 126.75 0.15 125.04 0.44L125.04 0.44 124.84 0.2Q125.33-0.44 125.08-1.93 124.82-3.42 123.57-6.45L123.57-6.45 119.55-16.55Q112.37-16.67 107.68-16.5L107.68-16.5 102.04-3.39Q101.53-2.27 102.42-1.51 103.31-0.76 105.92-0.24L105.92-0.24 105.82 0.2Q101.58-0.12 98.89 0L98.89 0Q98.74-0.15 98.57-0.49L98.57-0.49ZM113.83-30.69L108.34-17.94Q111.88-17.85 118.94-17.94L118.94-17.94 113.83-30.69ZM141.37-1.2L141.37-1.2 140.88-0.71Q138.68-0.46 136.93 0.61L136.93 0.61Q135.88-1.98 135.49-3.71L135.49-3.71Q137.98-4.98 140.42-5.25L140.42-5.25Q140.42-3.44 141.37-1.2ZM145.37-34.69L145.66-35.25Q149.23-35.57 152.57-35.71 155.92-35.84 159.19-35.84L159.19-35.84Q162.46-35.84 166.29-35.68 170.13-35.52 174.67-35.21L174.67-35.21 174.96-34.69 172.67-28.76 171.86-29Q172.03-29.86 172.12-30.6 172.2-31.35 172.2-32.01L172.2-32.01Q172.2-32.91 172.06-33.64L172.06-33.64Q168.95-33.84 166.48-33.94 164-34.03 162.07-34.06L162.07-34.06 162.07-4.39Q162.07-3.39 162.25-2.69 162.44-1.98 162.88-1.49 163.32-1 164.05-0.7 164.78-0.39 165.9-0.2L165.9-0.2 165.71 0.39Q164.24 0.2 163.17 0.1 162.09 0 161.36 0L161.36 0Q160.68 0 159.84 0.1 158.99 0.2 157.97 0.39L157.97 0.39 157.82 0.15Q158.31-0.56 158.31-2.44L158.31-2.44 158.31-34.06Q156.45-34.03 153.96-33.94 151.47-33.84 148.28-33.64L148.28-33.64Q148.13-32.84 148.13-31.93L148.13-31.93Q148.13-30.64 148.47-29L148.47-29 147.67-28.76 145.37-34.69Z" opacity="1" transform="matrix(1,0,0,1,0,0)" fill="#35c5c9" class="undefined-text-0" data-fill-palette-color="primary" id="text-0"></path></svg></g></svg></g></svg></g></svg></g><g><svg viewBox="0 0 116.01665159073231 116.02028710833096" height="116.02028710833096" width="116.01665159073231"><g><svg xmlns="http://www.w3.org/2000/svg" xmlns:xlink="http://www.w3.org/1999/xlink" version="1.1" x="0" y="0" viewBox="18.350997924804688 18.347999572753906 63.30200958251953 63.303993225097656" enable-background="new 0 0 100 100" xml:space="preserve" height="116.02028710833096" width="116.01665159073231" class="icon-icon-0" data-fill-palette-color="accent" id="icon-0"><g fill="#2fd2c7" data-fill-palette-color="accent"><path fill="#2fd2c7" d="M80.951 48.597c-4.329-3.261-9.009-4.911-13.907-4.911-0.107 0-0.213 0-0.32 0.002-0.104-0.002-0.212-0.002-0.318-0.002-0.431 0-0.857 0.029-1.283 0.054 0.399-0.354 0.792-0.717 1.168-1.103 3.598-3.496 5.814-8.047 6.587-13.531 0.078-0.548-0.105-1.098-0.496-1.487-0.391-0.39-0.941-0.573-1.488-0.497-5.482 0.773-10.035 2.99-13.529 6.589-0.384 0.373-0.744 0.764-1.097 1.161 0.032-0.53 0.054-1.062 0.046-1.597 0.073-5.016-1.579-9.801-4.91-14.227-0.331-0.44-0.851-0.7-1.401-0.7-0.552 0-1.072 0.26-1.404 0.7-3.33 4.425-4.981 9.211-4.909 14.227-0.008 0.535 0.014 1.066 0.045 1.597-0.352-0.396-0.713-0.788-1.097-1.161-3.493-3.599-8.045-5.816-13.529-6.589-0.549-0.076-1.098 0.107-1.487 0.497-0.39 0.391-0.574 0.941-0.498 1.487 0.774 5.484 2.99 10.036 6.588 13.531 0.375 0.386 0.769 0.748 1.168 1.103-0.427-0.024-0.854-0.054-1.284-0.054-0.107 0-0.213 0-0.319 0.002-0.106-0.002-0.212-0.002-0.321-0.002-4.898 0-9.577 1.65-13.905 4.911-0.44 0.332-0.7 0.851-0.7 1.402 0 0.553 0.259 1.071 0.7 1.403 4.329 3.26 9.008 4.91 13.908 4.91 0.106 0 0.212 0 0.318-0.002 0.106 0.002 0.223-0.006 0.318 0.002 0.432 0 0.859-0.029 1.288-0.053-0.399 0.354-0.793 0.717-1.168 1.104-3.599 3.494-5.816 8.047-6.59 13.529-0.077 0.547 0.107 1.096 0.498 1.486 0.331 0.332 0.779 0.516 1.242 0.516 0.081 0 0.163-0.006 0.246-0.018 5.484-0.773 10.036-2.99 13.529-6.588 0.384-0.373 0.745-0.766 1.097-1.162-0.031 0.531-0.053 1.062-0.045 1.598-0.073 5.016 1.579 9.801 4.909 14.227 0.332 0.441 0.853 0.701 1.404 0.701 0.551 0 1.07-0.26 1.402-0.701 3.33-4.426 4.982-9.211 4.909-14.227 0.008-0.535-0.014-1.066-0.046-1.596 0.353 0.396 0.712 0.789 1.097 1.16 3.494 3.598 8.046 5.814 13.529 6.588 0.082 0.012 0.165 0.018 0.246 0.018 0.461 0 0.91-0.184 1.242-0.516 0.391-0.391 0.574-0.939 0.496-1.486-0.772-5.484-2.99-10.037-6.588-13.529-0.375-0.387-0.77-0.75-1.169-1.104 0.428 0.023 0.855 0.053 1.286 0.053 0.107 0 0.213 0 0.317-0.002 0.106 0.002 0.213 0.002 0.318 0.002 0.001 0 0 0 0.001 0 4.899 0 9.579-1.65 13.908-4.91 0.44-0.332 0.7-0.85 0.7-1.403C81.651 49.448 81.392 48.929 80.951 48.597zM48.784 49.509l1.217-1.215 1.214 1.215-1.214 1.215L48.784 49.509zM59.828 36.215c0.013-0.014 0.026-0.027 0.039-0.04 2.41-2.489 5.449-4.198 9.058-5.099-0.901 3.607-2.61 6.646-5.099 9.057-0.014 0.012-0.027 0.027-0.04 0.04-2.411 2.489-5.449 4.198-9.057 5.099C55.63 41.665 57.339 38.624 59.828 36.215zM47.2 33.247c-0.054-3.464 0.886-6.822 2.801-10.009 1.914 3.187 2.854 6.545 2.799 10.008 0 0.02 0 0.039 0 0.058 0.056 3.463-0.885 6.82-2.799 10.008-1.915-3.188-2.854-6.544-2.801-10.009C47.2 33.285 47.2 33.266 47.2 33.247zM31.077 31.076c3.608 0.9 6.647 2.609 9.056 5.099 0.014 0.013 0.027 0.026 0.04 0.04 2.489 2.409 4.199 5.448 5.098 9.057-3.606-0.901-6.646-2.61-9.057-5.101-0.013-0.013-0.027-0.026-0.039-0.039C33.686 37.722 31.977 34.684 31.077 31.076zM33.303 52.799c-0.009 0-0.018 0-0.027 0s-0.019 0-0.029 0c-0.096 0.002-0.192 0.004-0.289 0.004-3.361 0-6.62-0.941-9.72-2.803 3.099-1.861 6.358-2.801 9.717-2.801 0.098 0 0.195 0 0.292 0.002 0.019 0.001 0.038 0.001 0.056 0 0.098-0.002 0.195-0.002 0.292-0.002 3.359 0 6.619 0.939 9.717 2.801-3.099 1.862-6.359 2.803-9.719 2.803C33.496 52.803 33.399 52.801 33.303 52.799zM40.174 63.785c-0.014 0.014-0.027 0.025-0.041 0.039-2.409 2.488-5.448 4.197-9.056 5.1 0.899-3.607 2.608-6.646 5.098-9.059 0.013-0.012 0.026-0.025 0.041-0.039 2.409-2.488 5.448-4.197 9.056-5.098C44.371 58.336 42.662 61.375 40.174 63.785zM52.8 66.752c0.056 3.465-0.885 6.822-2.799 10.01-1.915-3.188-2.854-6.545-2.801-10.01 0-0.02 0-0.037 0-0.055-0.054-3.465 0.886-6.822 2.801-10.01 1.914 3.188 2.854 6.545 2.799 10.01C52.8 66.715 52.8 66.732 52.8 66.752zM68.924 68.924c-3.607-0.902-6.646-2.611-9.058-5.098-0.013-0.014-0.025-0.027-0.038-0.041-2.489-2.41-4.198-5.449-5.099-9.057 3.607 0.9 6.646 2.609 9.056 5.098 0.014 0.014 0.026 0.027 0.04 0.039C66.314 62.277 68.022 65.314 68.924 68.924zM67.042 52.803c-0.096 0-0.192-0.002-0.289-0.004-0.01 0-0.02 0-0.029 0-0.009 0-0.018 0-0.028 0-0.096 0.002-0.192 0.004-0.289 0.004-3.361 0-6.62-0.941-9.718-2.803 3.098-1.861 6.356-2.801 9.717-2.801 0.097 0 0.194 0 0.29 0.002 0.02 0.001 0.039 0.001 0.058 0 0.097-0.002 0.194-0.002 0.291-0.002 3.36 0 6.62 0.939 9.718 2.801C73.664 51.861 70.404 52.803 67.042 52.803z" data-fill-palette-color="accent"></path><circle fill="#2fd2c7" cx="66.725" cy="50" r="2.3" data-fill-palette-color="accent"></circle><circle fill="#2fd2c7" cx="33.276" cy="50" r="2.3" data-fill-palette-color="accent"></circle><circle fill="#2fd2c7" cx="50" cy="66.725" r="2.3" data-fill-palette-color="accent"></circle><circle fill="#2fd2c7" cx="50" cy="33.275" r="2.3" data-fill-palette-color="accent"></circle><circle fill="#2fd2c7" cx="61.827" cy="61.825" r="2.3" data-fill-palette-color="accent"></circle><circle fill="#2fd2c7" cx="38.174" cy="38.174" r="2.3" data-fill-palette-color="accent"></circle><circle fill="#2fd2c7" cx="38.174" cy="61.825" r="2.3" data-fill-palette-color="accent"></circle><circle fill="#2fd2c7" cx="61.827" cy="38.174" r="2.3" data-fill-palette-color="accent"></circle></g></svg></g></svg></g></svg></g><defs></defs></svg><rect width="395.52" height="86.36091403360948" fill="none" stroke="none" visibility="hidden"></rect></g></svg></g></svg>